<svg fill="#fff" viewBox="0 0 24 24" xmlns="http://www.w3.org/2000/svg"><path d="M5.239 8.64a2.43 2.43 0 0 1-1.041 1.036l5.714 5.736 1.377-.698zm7.537 7.566-1.378.698 2.895 2.907a2.43 2.43 0 0 1 1.041-1.037zm6.61-5.297-3.234 1.64.238 1.526 3.66-1.856a2.43 2.43 0 0 1-.663-1.31m-5.113 2.592-7.649 3.876a2.43 2.43 0 0 1 .664 1.31l7.223-3.66zm-2.46-9.549-3.69 7.205 1.089 1.094 3.908-7.628a2.43 2.43 0 0 1-1.307-.67m-4.65 9.078-1.87 3.65a2.44 2.44 0 0 1 1.307.67l1.652-3.226zm-2.998-3.34a2.44 2.44 0 0 1-1.216.255 3 3 0 0 1-.235-.025l1.092 6.983a2.44 2.44 0 0 1 1.216-.255q.118.007.234.025zm3.129 9.03a2.4 2.4 0 0 1 .025.49 2.4 2.4 0 0 1-.256.96l6.98 1.121a2.4 2.4 0 0 1-.025-.49 2.4 2.4 0 0 1 .257-.96zm12.78-6.476-3.222 6.29a2.43 2.43 0 0 1 1.307.671l3.222-6.29a2.43 2.43 0 0 1-1.307-.671M15.68 3.348a2.44 2.44 0 0 1-1.04 1.036l4.99 5.01a2.43 2.43 0 0 1 1.04-1.037zm-4.554-.731L4.818 5.813a2.43 2.43 0 0 1 .663 1.31l6.309-3.197a2.43 2.43 0 0 1-.664-1.31m3.502 1.774a2.44 2.44 0 0 1-1.236.264 3 3 0 0 1-.213-.022l.559 3.578 1.524.244zm-.565 5.9 1.32 8.46a2.43 2.43 0 0 1 1.199-.246q.128.007.254.028l-1.249-7.998zM5.486 7.15a2.4 2.4 0 0 1 .027.498 2.4 2.4 0 0 1-.253.953l3.58.575.704-1.374zm6.137.986L10.92 9.51l8.46 1.36a2.4 2.4 0 0 1-.024-.485 2.4 2.4 0 0 1 .26-.966zM13.645.015a2.212 2.212 0 1 0-.24 4.418 2.212 2.212 0 1 0 .24-4.418m8.261 8.293a2.212 2.212 0 1 0-.24 4.418 2.212 2.212 0 1 0 .24-4.418M16.57 18.725a2.212 2.212 0 1 0-.24 4.419 2.212 2.212 0 1 0 .24-4.419M5.01 16.871a2.212 2.212 0 1 0-.24 4.418 2.212 2.212 0 1 0 .24-4.418M3.204 5.307a2.212 2.212 0 1 0-.24 4.418 2.212 2.212 0 1 0 .24-4.418"/></svg>