<svg fill="#fff" viewBox="0 0 24 24" xmlns="http://www.w3.org/2000/svg"><path d="M14.09.481v1.411c-.308.022-.616 0-.902.044-.44.066-.881.13-1.3.241-.77.242-1.164.774-1.252 1.5a7 7 0 0 0-.069.99V18.74c0 .594.068 1.186.134 1.758.066.64.484 1.058 1.08 1.278.507.198 1.054.245 1.583.267 1.387.044 2.755.02 4.099-.332 1.937-.484 3.235-1.697 3.875-3.611.197-.617.284-1.256.438-1.894.022-.044.067-.132.111-.132h1.454c-.044 2.642.044 5.283 0 7.926H2.09v-1.386c0-.242 0-.219.22-.24.505-.045 1.011-.067 1.518-.155 1.013-.176 1.475-.686 1.63-1.72a7 7 0 0 0 .068-.946V4.711c0-.397-.047-.793-.09-1.167-.067-.683-.506-1.1-1.145-1.342-.594-.22-1.21-.244-1.827-.288h-.332V.481L2.33.285h11.54c.153 0 .22.02.22.196"/></svg>