<svg fill="#fff" viewBox="0 0 24 24" xmlns="http://www.w3.org/2000/svg"><path d="M19.512 1.173a1.88 1.88 0 0 1 1.877 1.874 1.884 1.884 0 0 1-1.877 1.857c-.99 0-1.817-.783-1.873-1.773l-3.897-.82-1.201 5.623c2.737.105 5.223.949 7.015 2.234a2.525 2.525 0 0 1 1.812-.737A2.634 2.634 0 0 1 24 12.063c0 1.075-.653 2-1.516 2.423.044.258.065.519.063.78 0 4.043-4.698 7.31-10.512 7.31s-10.512-3.267-10.512-7.31c0-.275.022-.55.064-.801a2.627 2.627 0 0 1-1.559-2.402 2.634 2.634 0 0 1 2.633-2.632c.694 0 1.347.294 1.811.735 1.812-1.325 4.32-2.146 7.12-2.232l1.329-6.276a.513.513 0 0 1 .21-.296.521.521 0 0 1 .357-.063l4.361.926c.3-.644.952-1.057 1.663-1.052M7.917 18.052c-.13 0-.254.05-.347.14a.497.497 0 0 0 0 .696c1.264 1.263 3.728 1.37 4.444 1.37.716 0 3.16-.084 4.444-1.37a.545.545 0 0 0 .044-.695.498.498 0 0 0-.697 0c-.82.8-2.527 1.095-3.77 1.095-1.243 0-2.97-.294-3.77-1.095a.49.49 0 0 0-.348-.143zm-.051-5.989A1.88 1.88 0 0 0 5.99 13.94c0 1.031.842 1.873 1.876 1.873a1.878 1.878 0 0 0 1.873-1.874 1.878 1.878 0 0 0-1.873-1.875Zm8.254 0a1.878 1.878 0 0 0-1.873 1.876c0 1.031.842 1.873 1.875 1.873a1.878 1.878 0 0 0 1.875-1.874 1.88 1.88 0 0 0-1.877-1.875"/></svg>