<svg fill="#fff" viewBox="0 0 24 24" xmlns="http://www.w3.org/2000/svg"><path d="M20.625 8.127q-.55 0-1.025-.205t-.832-.563-.563-.832T18 5.502q0-.54.205-1.02t.563-.837q.357-.358.832-.563.474-.205 1.025-.205.54 0 1.02.205t.837.563q.358.357.563.837t.205 1.02q0 .55-.205 1.025t-.563.832q-.357.358-.837.563t-1.02.205m0-3.75q-.469 0-.797.328t-.328.797.328.797.797.328.797-.328.328-.797-.328-.797-.797-.328M24 10.002v5.578q0 .774-.293 1.46t-.803 1.194q-.51.51-1.195.803-.686.293-1.459.293-.445 0-.908-.105-.463-.106-.85-.329-.293.95-.855 1.729t-1.319 1.336-1.67.861-1.898.305q-1.148 0-2.162-.398-1.014-.399-1.805-1.102t-1.312-1.664-.674-2.086h-5.8q-.411 0-.704-.293T0 16.881V6.873q0-.41.293-.703t.703-.293h8.59q-.34-.715-.34-1.5 0-.727.275-1.365.276-.639.75-1.114.475-.474 1.114-.75.638-.275 1.365-.275t1.365.275 1.114.75q.474.475.75 1.114.275.638.275 1.365t-.275 1.365q-.276.639-.75 1.113-.475.475-1.114.75-.638.276-1.365.276-.188 0-.375-.024-.188-.023-.375-.058v1.078h10.875q.469 0 .797.328t.328.797M12.75 2.373q-.41 0-.78.158-.368.158-.638.434-.27.275-.428.639-.158.363-.158.773t.158.78q.159.368.428.638.27.27.639.428t.779.158.773-.158q.364-.159.64-.428.274-.27.433-.639t.158-.779-.158-.773q-.159-.364-.434-.64-.275-.275-.639-.433-.363-.158-.773-.158M6.937 9.814h2.25V7.94H2.814v1.875h2.25v6h1.875zm10.313 7.313v-6.75H12v6.504q0 .41-.293.703t-.703.293H8.309q.152.809.556 1.5.405.691.985 1.19.58.497 1.318.779.738.281 1.582.281.926 0 1.746-.352.82-.351 1.436-.966.615-.616.966-1.43.352-.815.352-1.752m5.25-1.547v-5.203h-3.75v6.855q.305.305.691.452.387.146.809.146.469 0 .879-.176.41-.175.715-.48.304-.305.48-.715t.176-.879"/></svg>