<svg fill="#fff" viewBox="0 0 24 24" xmlns="http://www.w3.org/2000/svg"><path d="M20.888 3.551c.168-.003.54.039.781.235.162.14.264.335.288.547.026.156.06.514.033.793-.302 3.189-1.616 10.924-2.285 14.495-.282 1.512-.838 2.017-1.378 2.066-1.17.11-2.058-.773-3.192-1.515-1.774-1.165-2.777-1.889-4.5-3.025-1.99-1.31-.7-2.033.434-3.209.297-.309 5.455-5.002 5.556-5.427.012-.054.024-.252-.094-.356s-.292-.069-.418-.04q-.267.061-8.504 5.62-1.208.831-2.187.806c-.72-.013-2.104-.405-3.134-.739C1.025 13.39.022 13.174.11 12.476q.068-.544 1.5-1.114 8.816-3.84 11.758-5.064c5.599-2.328 6.763-2.733 7.521-2.747Z"/></svg>