<svg fill="#fff" viewBox="0 0 24 24" xmlns="http://www.w3.org/2000/svg"><path d="M12.19 24q-5.4-.04-8.19-3.5-2.48-3.1-2.53-8.5v-.02Q1.52 6.6 4 3.51C5.84 1.21 8.6.02 12.18 0h.01q4.14.04 6.83 2.1a10 10 0 0 1 3.5 5.47l-2.03.56c-1.1-3.96-3.9-5.98-8.3-6.01q-4.38.04-6.54 2.72Q3.64 7.34 3.59 12q.05 4.65 2.06 7.16 2.16 2.69 6.54 2.72c2.62-.02 4.35-.63 5.8-2.04a4.3 4.3 0 0 0 1.09-4.8 4 4 0 0 0-1.64-1.75 6.6 6.6 0 0 1-1.28 3.27 4.9 4.9 0 0 1-3.73 1.79 5.5 5.5 0 0 1-3.26-.8 3.74 3.74 0 0 1-.42-6.05 6 6 0 0 1 3.58-1.29 14 14 0 0 1 3.02.14 3.5 3.5 0 0 0-.75-1.75q-.77-.88-2.36-.9h-.03c-.84 0-1.99.24-2.72 1.33L7.73 7.85a5.2 5.2 0 0 1 4.48-2.26h.05c3.19.02 5.1 1.98 5.28 5.39l.32.14a6.2 6.2 0 0 1 3.16 3.07 6.4 6.4 0 0 1-1.55 7.16c-1.85 1.8-4.1 2.63-7.28 2.65m1-11.69-.74.02c-1.84.1-2.98.95-2.92 2.14.07 1.26 1.46 1.84 2.79 1.77 1.22-.06 2.82-.54 3.08-3.7a11 11 0 0 0-2.21-.23"/></svg>