<svg viewBox="0 0 128 128" xmlns="http://www.w3.org/2000/svg" fill-rule="evenodd" clip-rule="evenodd" stroke-linejoin="round" stroke-miterlimit="2"><path fill="url(#_Linear1)" fill-rule="nonzero" d="M4 87h40v12H4z"/><path d="M11 100.5H5c-.55 0-1-.45-1-1v-13c0-.55.45-1 1-1h6c.55 0 1 .45 1 1v13c0 .55-.45 1-1 1z" fill="url(#_Linear2)" fill-rule="nonzero"/><path fill="url(#_Linear3)" fill-rule="nonzero" d="M4 87h40v12H4z"/><path d="M52.65 113.85c0-6.95-3.9-6.25-3.9-6.25s-3.9-.71-3.9 6.25c0 3.94-.38 6.67-.7 8.3-.19.96.53 1.85 1.5 1.85h6.2c.97 0 1.69-.89 1.5-1.85-.33-1.63-.7-4.36-.7-8.3z" fill="url(#_Radial4)" fill-rule="nonzero"/><circle cx="48.74" cy="104.23" r="3.81" fill="url(#_Radial5)"/><path d="M48.74 102.42c1 0 1.81.81 1.81 1.81 0 .75-.46 1.41-1.18 1.68l-.63.24-.63-.24c-.72-.27-1.18-.93-1.18-1.68.01-1 .82-1.81 1.81-1.81m0 6.99l.6.24c.63.25 1.31 1.48 1.31 4.2 0 3.71.33 6.42.64 8.15H46.2c.31-1.74.64-4.44.64-8.15 0-2.72.67-3.95 1.31-4.2l.59-.24m0-8.99c-2.1 0-3.81 1.7-3.81 3.81 0 1.63 1.03 3.01 2.48 3.56-1.13.44-2.58 1.83-2.58 6.06 0 3.94-.38 6.67-.7 8.3-.19.96.53 1.85 1.5 1.85h6.2c.97 0 1.69-.89 1.5-1.85-.33-1.63-.7-4.36-.7-8.3 0-4.23-1.44-5.62-2.58-6.06a3.813 3.813 0 002.48-3.56v-.03a3.798 3.798 0 00-3.78-3.78h-.01z" fill="#424242" fill-opacity=".2" fill-rule="nonzero"/><path d="M45.51 113.85c0-6.95-3.9-6.25-3.9-6.25s-3.9-.71-3.9 6.25c0 3.94-.38 6.67-.7 8.3-.19.96.53 1.85 1.5 1.85h6.2c.97 0 1.69-.89 1.5-1.85-.32-1.63-.7-4.36-.7-8.3z" fill="url(#_Radial6)" fill-rule="nonzero"/><circle cx="41.61" cy="104.23" r="3.81" fill="url(#_Radial7)"/><path d="M41.61 102.42c1 0 1.81.81 1.81 1.81 0 .75-.46 1.41-1.18 1.68l-.63.24-.63-.24c-.72-.27-1.18-.93-1.18-1.68 0-1 .81-1.81 1.81-1.81m0 6.99l.6.24c.63.25 1.31 1.48 1.31 4.2 0 3.71.33 6.42.64 8.15h-5.08c.31-1.74.64-4.44.64-8.15 0-2.72.67-3.95 1.31-4.2l.58-.24m0-8.99c-2.1 0-3.81 1.7-3.81 3.81 0 1.63 1.03 3.01 2.48 3.56-1.13.44-2.58 1.83-2.58 6.06 0 3.94-.38 6.67-.7 8.3-.19.96.53 1.85 1.5 1.85h6.2c.97 0 1.69-.89 1.5-1.85-.33-1.63-.7-4.36-.7-8.3 0-4.23-1.44-5.62-2.58-6.06a3.813 3.813 0 002.48-3.56c.01-2.1-1.69-3.81-3.79-3.81zM9 88.5V90h32v6H9v1.5H7v-9h2m2-3H5c-.55 0-1 .45-1 1v13c0 .55.45 1 1 1h6c.55 0 1-.45 1-1V99h32V87H12v-.5c0-.55-.45-1-1-1z" fill="#424242" fill-opacity=".2" fill-rule="nonzero"/><path d="M44 47c11.03 0 20 8.97 20 20s-8.97 20-20 20-20-8.97-20-20 8.97-20 20-20m0-12c-17.67 0-32 14.33-32 32s14.33 32 32 32 32-14.33 32-32-14.33-32-32-32z" fill="url(#_Radial8)" fill-rule="nonzero"/><path d="M44 35c-.14 0-.27.01-.41.01v12.01c.14 0 .27-.02.41-.02 11.03 0 20 8.97 20 20 0 9.73-6.99 17.85-16.21 19.63.13.24.25.49.37.74.56-.06 4.31-.46 4.98-.63 4.05-1.04 17.74-5.6 22.84-20.42C75.62 48.96 61.45 35 44 35z" fill="url(#_Linear9)" fill-rule="nonzero"/><path d="M44 38c15.99 0 29 13.01 29 29S59.99 96 44 96 15 82.99 15 67s13.01-29 29-29m0 52c12.68 0 23-10.32 23-23S56.68 44 44 44 21 54.32 21 67s10.32 23 23 23m0-55c-17.67 0-32 14.33-32 32s14.33 32 32 32 32-14.33 32-32-14.33-32-32-32zm0 52c-11.03 0-20-8.97-20-20s8.97-20 20-20 20 8.97 20 20-8.97 20-20 20z" fill="#424242" fill-opacity=".2" fill-rule="nonzero"/><path d="M124 16.5h-.07c-.38-5.3-13.31-10.65-29.61-12.12-16.84-1.52-30.9 1.67-31.39 7.14-.12 1.33.57 2.67 1.93 3.95 2.67 2.54 5.05 5.39 6.52 8.77 3.49 8.01 3.96 18.64 1.76 34.45C70.25 79.36 53.08 85.75 48 86.21c-.86.08-5.75.01-5.75.01L43.39 100c.45-.13 5.33.05 5.79 0 25.46-2.65 41.2-21.39 54.33-53.16 3.55-8.59 8.36-18.44 17.47-26.04 1.59-1.33 2.83-2.34 2.96-3.76.01-.16.01-.32.01-.48.02-.03.05-.06.05-.06z" fill="url(#_Radial10)" fill-rule="nonzero"/><path d="M86.09 7c2.59 0 5.27.12 7.97.37 18.19 1.64 26.67 7.38 26.88 9.32v.03c-.2.36-1.14 1.14-1.83 1.72l-.06.05c-9.52 7.94-14.6 18.2-18.32 27.19C86.84 79.28 71.35 94.64 48.94 97h-.13c-.36 0-.95-.01-1.61-.02-.34-.01-.7-.01-1.05-.02l-.63-7.72h.24c1.72 0 2.24-.03 2.52-.05 5.06-.45 24.6-6.89 27.84-30.09 2.3-16.51 1.69-27.63-1.98-36.06-1.45-3.32-3.8-6.51-7.2-9.74-.83-.79-1.02-1.33-1.01-1.51C66.04 10.43 72.22 7 86.09 7m0-3c-12.97 0-22.75 2.98-23.16 7.52-.12 1.33.57 2.67 1.93 3.95 2.67 2.54 5.05 5.39 6.52 8.77 3.49 8.01 3.96 18.64 1.76 34.45C70.25 79.36 53.08 85.75 48 86.21c-.33.03-1.24.04-2.25.04-1.63 0-3.5-.02-3.5-.02L43.39 100c.12-.04.59-.05 1.21-.05 1.33 0 3.37.06 4.22.06.18 0 .3 0 .36-.01 25.46-2.65 41.2-21.39 54.33-53.16 3.55-8.59 8.36-18.44 17.47-26.04 1.59-1.33 2.83-2.34 2.96-3.76.01-.16.01-.32.01-.48.04-.03.07-.06.07-.06h-.07c-.38-5.3-13.31-10.65-29.61-12.12-2.86-.26-5.62-.38-8.25-.38z" fill="#424242" fill-opacity=".2" fill-rule="nonzero"/><path d="M49.17 100.42h-8c-1.66 0-3-1.34-3-3v-10c0-1.66 1.34-3 3-3h8c1.66 0 3 1.34 3 3v10c0 1.65-1.34 3-3 3z" fill="url(#_Linear11)" fill-rule="nonzero"/><path d="M49.17 84.42h-8c-1.66 0-3 1.34-3 3v10c0 1.66 1.34 3 3 3h8c1.66 0 3-1.34 3-3v-10c0-1.66-1.34-3-3-3zm-2.87 2v12h-2.29v-12h2.29zm-6.13 11v-10c0-.55.45-1 1-1h.84v12h-.84c-.55 0-1-.45-1-1zm10 0c0 .55-.45 1-1 1h-.87v-12h.87c.55 0 1 .45 1 1v10z" fill="#424242" fill-opacity=".2" fill-rule="nonzero"/><defs><radialGradient id="_Radial4" cx="0" cy="0" r="1" gradientUnits="userSpaceOnUse" gradientTransform="translate(48.859 127.68) scale(20.865)"><stop offset="0" stop-color="#ffd740"/><stop offset=".2" stop-color="#ffd43c"/><stop offset=".42" stop-color="#ffcb2f"/><stop offset=".63" stop-color="#ffbd1a"/><stop offset=".83" stop-color="#ffab00"/><stop offset="1" stop-color="#ffab00"/></radialGradient><radialGradient id="_Radial5" cx="0" cy="0" r="1" gradientUnits="userSpaceOnUse" gradientTransform="translate(48.743 97.83) scale(8.688)"><stop offset="0" stop-color="#ffab00"/><stop offset="1" stop-color="#ffab00"/></radialGradient><radialGradient id="_Radial6" cx="0" cy="0" r="1" gradientUnits="userSpaceOnUse" gradientTransform="translate(41.569 131.49) scale(25.861)"><stop offset="0" stop-color="#ffd740"/><stop offset=".2" stop-color="#ffd43c"/><stop offset=".42" stop-color="#ffcb2f"/><stop offset=".63" stop-color="#ffbd1a"/><stop offset=".83" stop-color="#ffab00"/><stop offset="1" stop-color="#ffab00"/></radialGradient><radialGradient id="_Radial7" cx="0" cy="0" r="1" gradientUnits="userSpaceOnUse" gradientTransform="translate(41.607 97.83) scale(8.688)"><stop offset="0" stop-color="#ffab00"/><stop offset="1" stop-color="#ffab00"/></radialGradient><radialGradient id="_Radial8" cx="0" cy="0" r="1" gradientUnits="userSpaceOnUse" gradientTransform="translate(43 32.333) scale(58.902)"><stop offset="0" stop-color="#ffd740"/><stop offset=".51" stop-color="#ffbf1d"/><stop offset=".82" stop-color="#ffb30c"/><stop offset="1" stop-color="#ffab00"/></radialGradient><radialGradient id="_Radial10" cx="0" cy="0" r="1" gradientUnits="userSpaceOnUse" gradientTransform="translate(74 10.333) scale(76.685)"><stop offset="0" stop-color="#ffd740"/><stop offset=".51" stop-color="#ffbf1d"/><stop offset=".82" stop-color="#ffb30c"/><stop offset="1" stop-color="#ffab00"/></radialGradient><linearGradient id="_Linear1" x1="0" y1="0" x2="1" y2="0" gradientUnits="userSpaceOnUse" gradientTransform="matrix(0 12.495 -12.495 0 24 86.833)"><stop offset="0" stop-color="#ffd740"/><stop offset=".51" stop-color="#ffbf1d"/><stop offset=".82" stop-color="#ffb30c"/><stop offset="1" stop-color="#ffab00"/></linearGradient><linearGradient id="_Linear2" x1="0" y1="0" x2="1" y2="0" gradientUnits="userSpaceOnUse" gradientTransform="matrix(0 15.82 -15.82 0 8 85.5)"><stop offset="0" stop-color="#ffd740"/><stop offset=".51" stop-color="#ffbf1d"/><stop offset=".82" stop-color="#ffb30c"/><stop offset="1" stop-color="#ffab00"/></linearGradient><linearGradient id="_Linear3" x1="0" y1="0" x2="1" y2="0" gradientUnits="userSpaceOnUse" gradientTransform="matrix(-11.524 0 0 -11.524 27 93)"><stop offset="0" stop-color="#f57c00"/><stop offset="1" stop-color="#f57c00" stop-opacity="0"/></linearGradient><linearGradient id="_Linear9" x1="0" y1="0" x2="1" y2="0" gradientUnits="userSpaceOnUse" gradientTransform="matrix(0 -23.001 23.001 0 59.788 85.5)"><stop offset="0" stop-color="#f57c00"/><stop offset="1" stop-color="#f57c00" stop-opacity="0"/></linearGradient><linearGradient id="_Linear11" x1="0" y1="0" x2="1" y2="0" gradientUnits="userSpaceOnUse" gradientTransform="matrix(0 16.91 -16.91 0 45.175 84.25)"><stop offset="0" stop-color="#ef5350"/><stop offset="1" stop-color="#e53935"/><stop offset="1" stop-color="#e53935"/></linearGradient></defs></svg>